<svg width="1316" height="303" viewBox="0 0 1316 303" fill="none" xmlns="http://www.w3.org/2000/svg">
<path d="M48.6506 60.1818V242H16.5128V60.1818H48.6506ZM141.18 244.663C127.863 244.663 116.322 241.734 106.556 235.874C96.7907 230.015 89.2149 221.818 83.829 211.283C78.5023 200.748 75.839 188.437 75.839 174.351C75.839 160.265 78.5023 147.924 83.829 137.33C89.2149 126.736 96.7907 118.509 106.556 112.65C116.322 106.79 127.863 103.861 141.18 103.861C154.497 103.861 166.038 106.79 175.803 112.65C185.569 118.509 193.115 126.736 198.442 137.33C203.828 147.924 206.521 160.265 206.521 174.351C206.521 188.437 203.828 200.748 198.442 211.283C193.115 221.818 185.569 230.015 175.803 235.874C166.038 241.734 154.497 244.663 141.18 244.663ZM141.357 218.918C148.578 218.918 154.615 216.935 159.468 212.969C164.321 208.945 167.932 203.559 170.299 196.812C172.726 190.065 173.939 182.548 173.939 174.262C173.939 165.917 172.726 158.371 170.299 151.624C167.932 144.817 164.321 139.402 159.468 135.377C154.615 131.353 148.578 129.34 141.357 129.34C133.959 129.34 127.804 131.353 122.892 135.377C118.038 139.402 114.398 144.817 111.972 151.624C109.604 158.371 108.421 165.917 108.421 174.262C108.421 182.548 109.604 190.065 111.972 196.812C114.398 203.559 118.038 208.945 122.892 212.969C127.804 216.935 133.959 218.918 141.357 218.918ZM233.798 105.636H265.936V249.812C265.936 259.637 264.071 267.746 260.343 274.138C256.614 280.53 251.228 285.294 244.185 288.431C237.142 291.568 228.59 293.136 218.528 293.136C217.344 293.136 216.249 293.107 215.243 293.048C214.237 293.048 213.142 293.018 211.958 292.959V266.769C212.846 266.828 213.645 266.858 214.355 266.858C215.066 266.917 215.806 266.947 216.575 266.947C222.73 266.947 227.14 265.438 229.803 262.419C232.466 259.46 233.798 255.11 233.798 249.369V105.636ZM249.778 86.2827C244.629 86.2827 240.22 84.5959 236.55 81.2223C232.94 77.7895 231.135 73.6761 231.135 68.8821C231.135 64.0289 232.94 59.9155 236.55 56.5419C240.22 53.1091 244.629 51.3928 249.778 51.3928C254.868 51.3928 259.218 53.1091 262.828 56.5419C266.498 59.9155 268.333 64.0289 268.333 68.8821C268.333 73.6761 266.498 77.7895 262.828 81.2223C259.218 84.5959 254.868 86.2827 249.778 86.2827ZM298.983 242V105.636H331.121V242H298.983ZM315.141 86.2827C310.051 86.2827 305.671 84.5959 302.002 81.2223C298.332 77.7895 296.498 73.6761 296.498 68.8821C296.498 64.0289 298.332 59.9155 302.002 56.5419C305.671 53.1091 310.051 51.3928 315.141 51.3928C320.29 51.3928 324.67 53.1091 328.28 56.5419C331.95 59.9155 333.785 64.0289 333.785 68.8821C333.785 73.6761 331.95 77.7895 328.28 81.2223C324.67 84.5959 320.29 86.2827 315.141 86.2827ZM396.307 162.099V242H364.169V105.636H394.886V128.808H396.484C399.621 121.173 404.622 115.106 411.488 110.608C418.413 106.11 426.965 103.861 437.145 103.861C446.555 103.861 454.753 105.873 461.737 109.898C468.78 113.922 474.225 119.752 478.072 127.387C481.978 135.022 483.902 144.285 483.842 155.175V242H451.705V160.146C451.705 151.032 449.337 143.9 444.602 138.751C439.927 133.602 433.446 131.027 425.16 131.027C419.537 131.027 414.536 132.27 410.156 134.756C405.836 137.182 402.433 140.704 399.947 145.32C397.52 149.937 396.307 155.53 396.307 162.099ZM548.651 162.099V242H516.513V60.1818H547.94V128.808H549.538C552.734 121.113 557.676 115.047 564.364 110.608C571.112 106.11 579.693 103.861 590.11 103.861C599.58 103.861 607.836 105.844 614.879 109.809C621.922 113.774 627.367 119.575 631.214 127.21C635.121 134.844 637.074 144.166 637.074 155.175V242H604.936V160.146C604.936 150.973 602.569 143.841 597.834 138.751C593.158 133.602 586.589 131.027 578.125 131.027C572.443 131.027 567.353 132.27 562.855 134.756C558.416 137.182 554.924 140.704 552.379 145.32C549.893 149.937 548.651 155.53 548.651 162.099ZM709.073 244.752C700.432 244.752 692.649 243.213 685.724 240.136C678.859 236.999 673.414 232.382 669.389 226.286C665.424 220.19 663.441 212.674 663.441 203.737C663.441 196.042 664.862 189.68 667.702 184.649C670.543 179.618 674.42 175.594 679.332 172.575C684.245 169.557 689.779 167.278 695.934 165.739C702.148 164.141 708.57 162.987 715.199 162.277C723.189 161.448 729.67 160.709 734.641 160.058C739.613 159.347 743.223 158.282 745.472 156.862C747.781 155.382 748.935 153.103 748.935 150.026V149.493C748.935 142.805 746.952 137.626 742.987 133.957C739.021 130.287 733.31 128.452 725.852 128.452C717.981 128.452 711.737 130.169 707.12 133.602C702.563 137.034 699.485 141.089 697.887 145.764L667.88 141.503C670.247 133.217 674.154 126.292 679.599 120.729C685.044 115.106 691.702 110.904 699.574 108.122C707.446 105.281 716.146 103.861 725.675 103.861C732.244 103.861 738.784 104.63 745.295 106.169C751.805 107.708 757.753 110.253 763.139 113.804C768.525 117.296 772.846 122.06 776.101 128.097C779.415 134.134 781.072 141.68 781.072 150.736V242H750.178V223.268H749.112C747.159 227.056 744.407 230.607 740.856 233.921C737.364 237.176 732.955 239.81 727.628 241.822C722.36 243.776 716.175 244.752 709.073 244.752ZM717.418 221.137C723.87 221.137 729.463 219.865 734.197 217.32C738.932 214.715 742.572 211.283 745.117 207.021C747.721 202.76 749.023 198.114 749.023 193.083V177.014C748.017 177.843 746.301 178.612 743.874 179.322C741.507 180.033 738.844 180.654 735.884 181.187C732.925 181.719 729.995 182.193 727.095 182.607C724.195 183.022 721.68 183.377 719.549 183.673C714.755 184.324 710.464 185.389 706.676 186.869C702.888 188.348 699.899 190.42 697.71 193.083C695.52 195.687 694.425 199.061 694.425 203.204C694.425 209.122 696.585 213.591 700.906 216.609C705.226 219.628 710.73 221.137 717.418 221.137ZM833.185 243.953C827.799 243.953 823.183 242.059 819.336 238.271C815.489 234.483 813.595 229.867 813.654 224.422C813.595 219.095 815.489 214.538 819.336 210.75C823.183 206.962 827.799 205.068 833.185 205.068C838.394 205.068 842.921 206.962 846.768 210.75C850.675 214.538 852.657 219.095 852.717 224.422C852.657 228.032 851.71 231.317 849.876 234.276C848.1 237.236 845.733 239.603 842.773 241.379C839.873 243.095 836.677 243.953 833.185 243.953ZM936.501 244.397C925.789 244.397 916.201 241.645 907.737 236.141C899.273 230.636 892.586 222.646 887.673 212.17C882.761 201.695 880.305 188.97 880.305 173.996C880.305 158.844 882.79 146.06 887.762 135.643C892.793 125.168 899.569 117.266 908.092 111.94C916.615 106.554 926.114 103.861 936.59 103.861C944.58 103.861 951.15 105.222 956.299 107.945C961.448 110.608 965.532 113.834 968.55 117.621C971.569 121.35 973.907 124.872 975.564 128.186H976.895V60.1818H1009.12V242H977.517V220.516H975.564C973.907 223.83 971.51 227.352 968.373 231.08C965.236 234.75 961.093 237.887 955.944 240.491C950.795 243.095 944.314 244.397 936.501 244.397ZM945.468 218.03C952.274 218.03 958.074 216.195 962.868 212.526C967.662 208.797 971.302 203.618 973.788 196.989C976.274 190.361 977.517 182.637 977.517 173.818C977.517 165 976.274 157.335 973.788 150.825C971.362 144.314 967.751 139.254 962.957 135.643C958.222 132.033 952.393 130.228 945.468 130.228C938.306 130.228 932.329 132.092 927.535 135.821C922.741 139.55 919.13 144.699 916.704 151.268C914.277 157.838 913.064 165.355 913.064 173.818C913.064 182.341 914.277 189.946 916.704 196.634C919.189 203.263 922.829 208.501 927.623 212.348C932.477 216.136 938.425 218.03 945.468 218.03ZM1103.74 244.663C1090.07 244.663 1078.26 241.822 1068.31 236.141C1058.43 230.4 1050.83 222.291 1045.5 211.815C1040.17 201.28 1037.51 188.881 1037.51 174.617C1037.51 160.59 1040.17 148.28 1045.5 137.685C1050.88 127.032 1058.4 118.746 1068.05 112.827C1077.7 106.85 1089.03 103.861 1102.05 103.861C1110.46 103.861 1118.39 105.222 1125.84 107.945C1133.36 110.608 1139.99 114.751 1145.73 120.374C1151.53 125.996 1156.09 133.158 1159.4 141.858C1162.72 150.499 1164.37 160.797 1164.37 172.753V182.607H1052.6V160.945H1133.57C1133.51 154.79 1132.18 149.315 1129.57 144.521C1126.97 139.668 1123.33 135.851 1118.65 133.069C1114.04 130.287 1108.65 128.896 1102.49 128.896C1095.93 128.896 1090.15 130.494 1085.18 133.69C1080.21 136.827 1076.33 140.97 1073.55 146.119C1070.83 151.209 1069.44 156.802 1069.38 162.898V181.808C1069.38 189.739 1070.83 196.545 1073.73 202.227C1076.63 207.85 1080.68 212.17 1085.89 215.189C1091.1 218.148 1097.2 219.628 1104.18 219.628C1108.86 219.628 1113.09 218.977 1116.88 217.675C1120.66 216.313 1123.95 214.331 1126.73 211.727C1129.51 209.122 1131.61 205.897 1133.03 202.05L1163.04 205.423C1161.15 213.354 1157.54 220.279 1152.21 226.197C1146.94 232.057 1140.2 236.614 1131.97 239.869C1123.74 243.065 1114.33 244.663 1103.74 244.663ZM1309.46 105.636L1260.9 242H1225.39L1176.82 105.636H1211.09L1242.43 206.933H1243.85L1275.28 105.636H1309.46Z" fill="#FEFEFE"/>
</svg>
